<svg width="48" height="43" viewBox="0 0 48 43" fill="none" xmlns="http://www.w3.org/2000/svg">
<path d="M47.3735 14.7874L35.3733 26.1194C34.1083 27.314 32 26.4284 32 24.6654V18.6685C19.9521 18.7494 14.8695 21.5946 18.2688 32.9479C18.6423 34.1957 17.1982 35.1618 16.1849 34.3921C12.9377 31.9254 10 27.2074 10 22.4449C10 10.4502 19.7999 8.06994 32 8.00227V2.00102C32 0.236519 34.1098 -0.646315 35.3733 0.547019L47.3735 11.8794C48.2085 12.6679 48.2092 13.9981 47.3735 14.7874ZM32 31.594V37.3334H5.33333V10.6667H9.57633C9.711 10.6666 9.84425 10.6393 9.9681 10.5864C10.0919 10.5335 10.2038 10.4562 10.297 10.3589C11.5431 9.0616 12.9834 8.03477 14.5482 7.21927C15.4757 6.73585 15.132 5.33335 14.0861 5.33335H4C1.79083 5.33335 0 7.12419 0 9.33335V38.6667C0 40.8759 1.79083 42.6667 4 42.6667H33.3333C35.5425 42.6667 37.3333 40.8759 37.3333 38.6667V31.2662C37.3333 30.5755 36.6503 30.094 35.9991 30.3244C35.0861 30.6472 34.1085 30.7438 33.15 30.6058C32.5442 30.5186 32 30.9819 32 31.594Z" fill="white"/>
</svg>
