<svg width="48" height="48" viewBox="0 0 48 48" fill="none" xmlns="http://www.w3.org/2000/svg">
<path d="M29.5122 25.0625L30.2065 20.5381H25.8652V17.6021C25.8652 16.3643 26.4717 15.1577 28.416 15.1577H30.3896V11.3057C30.3896 11.3057 28.5986 11 26.8862 11C23.311 11 20.9741 13.167 20.9741 17.0898V20.5381H17V25.0625H20.9741V36H25.8652V25.0625H29.5122Z" fill="white"/>
<path fill-rule="evenodd" clip-rule="evenodd" d="M24 46C36.1503 46 46 36.1503 46 24C46 11.8497 36.1503 2 24 2C11.8497 2 2 11.8497 2 24C2 36.1503 11.8497 46 24 46ZM24 48C37.2548 48 48 37.2548 48 24C48 10.7452 37.2548 0 24 0C10.7452 0 0 10.7452 0 24C0 37.2548 10.7452 48 24 48Z" fill="white"/>
</svg>
