<svg width="48" height="48" viewBox="0 0 48 48" fill="none" xmlns="http://www.w3.org/2000/svg">
<path fill-rule="evenodd" clip-rule="evenodd" d="M24 46C36.1503 46 46 36.1503 46 24C46 11.8497 36.1503 2 24 2C11.8497 2 2 11.8497 2 24C2 36.1503 11.8497 46 24 46ZM24 48C37.2548 48 48 37.2548 48 24C48 10.7452 37.2548 0 24 0C10.7452 0 0 10.7452 0 24C0 37.2548 10.7452 48 24 48Z" fill="white"/>
<path d="M23.946 18.3308C20.8406 18.3308 18.3357 20.8357 18.3357 23.9412C18.3357 27.0466 20.8406 29.5515 23.946 29.5515C27.0515 29.5515 29.5564 27.0466 29.5564 23.9412C29.5564 20.8357 27.0515 18.3308 23.946 18.3308ZM23.946 27.5886C21.9392 27.5886 20.2986 25.9529 20.2986 23.9412C20.2986 21.9294 21.9343 20.2937 23.946 20.2937C25.9578 20.2937 27.5935 21.9294 27.5935 23.9412C27.5935 25.9529 25.9529 27.5886 23.946 27.5886ZM31.0945 18.1013C31.0945 18.8289 30.5085 19.4099 29.7859 19.4099C29.0584 19.4099 28.4773 18.824 28.4773 18.1013C28.4773 17.3787 29.0632 16.7927 29.7859 16.7927C30.5085 16.7927 31.0945 17.3787 31.0945 18.1013ZM34.8103 19.4294C34.7273 17.6765 34.3269 16.1238 33.0427 14.8445C31.7634 13.5652 30.2107 13.1648 28.4578 13.0769C26.6511 12.9744 21.2361 12.9744 19.4294 13.0769C17.6814 13.1599 16.1287 13.5603 14.8445 14.8396C13.5603 16.1189 13.1648 17.6716 13.0769 19.4246C12.9744 21.2312 12.9744 26.6462 13.0769 28.4529C13.1599 30.2058 13.5603 31.7585 14.8445 33.0378C16.1287 34.3171 17.6765 34.7175 19.4294 34.8054C21.2361 34.908 26.6511 34.908 28.4578 34.8054C30.2107 34.7224 31.7634 34.322 33.0427 33.0378C34.322 31.7585 34.7224 30.2058 34.8103 28.4529C34.9128 26.6462 34.9128 21.2361 34.8103 19.4294ZM32.4763 30.3914C32.0955 31.3484 31.3582 32.0857 30.3962 32.4714C28.9558 33.0427 25.5378 32.9109 23.946 32.9109C22.3542 32.9109 18.9314 33.0378 17.4958 32.4714C16.5388 32.0906 15.8015 31.3533 15.4158 30.3914C14.8445 28.9509 14.9763 25.533 14.9763 23.9412C14.9763 22.3494 14.8494 18.9265 15.4158 17.491C15.7966 16.5339 16.5339 15.7966 17.4958 15.4109C18.9363 14.8396 22.3542 14.9714 23.946 14.9714C25.5378 14.9714 28.9607 14.8445 30.3962 15.4109C31.3533 15.7917 32.0906 16.5291 32.4763 17.491C33.0476 18.9314 32.9158 22.3494 32.9158 23.9412C32.9158 25.533 33.0476 28.9558 32.4763 30.3914Z" fill="white"/>
</svg>
