<svg width="48" height="48" viewBox="0 0 48 48" fill="none" xmlns="http://www.w3.org/2000/svg">
<circle cx="24" cy="24" r="23" stroke="white" stroke-width="2"/>
<path d="M34.4302 19.0603C34.446 19.2823 34.446 19.5044 34.446 19.7265C34.446 26.5 29.2906 34.3045 19.868 34.3045C16.9651 34.3045 14.2684 33.4638 12 32.0044C12.4125 32.052 12.809 32.0679 13.2373 32.0679C15.6326 32.0679 17.8375 31.2589 19.5983 29.8788C17.3458 29.8312 15.4581 28.356 14.8077 26.3255C15.125 26.373 15.4422 26.4048 15.7754 26.4048C16.2354 26.4048 16.6955 26.3413 17.1237 26.2303C14.776 25.7544 13.0152 23.6922 13.0152 21.2018V21.1383C13.6973 21.519 14.4905 21.757 15.3312 21.7887C13.9511 20.8686 13.0469 19.2982 13.0469 17.5215C13.0469 16.5698 13.3007 15.6973 13.7449 14.9359C16.2671 18.045 20.0583 20.0754 24.3096 20.2976C24.2303 19.9168 24.1827 19.5203 24.1827 19.1237C24.1827 16.3001 26.4669 14 29.3064 14C30.7816 14 32.1141 14.6187 33.05 15.618C34.208 15.3959 35.3184 14.9676 36.302 14.3807C35.9212 15.5705 35.1122 16.5698 34.0494 17.2043C35.0805 17.0933 36.0799 16.8077 36.9999 16.4112C36.302 17.4264 35.4295 18.3305 34.4302 19.0603Z" fill="white"/>
</svg>
