<svg width="48" height="48" viewBox="0 0 48 48" fill="none" xmlns="http://www.w3.org/2000/svg">
<circle cx="24" cy="24" r="23" stroke="white" stroke-width="2"/>
<path d="M35.2084 18.6078C34.9358 17.5813 34.1326 16.7729 33.1128 16.4985C31.2642 16 23.8519 16 23.8519 16C23.8519 16 16.4395 16 14.591 16.4985C13.5711 16.7729 12.7679 17.5813 12.4953 18.6078C12 20.4683 12 24.3502 12 24.3502C12 24.3502 12 28.232 12.4953 30.0926C12.7679 31.1191 13.5711 31.8938 14.591 32.1681C16.4395 32.6667 23.8519 32.6667 23.8519 32.6667C23.8519 32.6667 31.2642 32.6667 33.1128 32.1681C34.1326 31.8938 34.9358 31.1191 35.2084 30.0926C35.7037 28.232 35.7037 24.3502 35.7037 24.3502C35.7037 24.3502 35.7037 20.4683 35.2084 18.6078ZM21.4276 27.8746V20.8257L27.6229 24.3503L21.4276 27.8746Z" fill="white"/>
</svg>
